<svg width="162" height="82" viewBox="0 0 162 82" fill="none" xmlns="http://www.w3.org/2000/svg">
<path d="M50.3711 72C50.3711 72 42.4961 72 26.7461 72C26.207 72 25.7031 71.8477 25.2344 71.543C24.5547 71.0508 24.1094 70.0664 23.8984 68.5898C23.8984 68.5898 23.8984 68.5781 23.8984 68.5547C23.8984 67.5938 26.0312 51.4688 30.2969 20.1797C30.3438 19.8281 30.4375 19.4883 30.5781 19.1602C31.0703 18.0117 31.9141 17.4375 33.1094 17.4375C33.5781 17.4375 34.0117 17.543 34.4102 17.7539C35.3945 18.2695 35.8867 19.1016 35.8867 20.25C35.6758 22.3828 35.1367 26.8008 34.2695 33.5039C31.5742 54.1523 30.168 65.0508 30.0508 66.1992H50.125C50.6641 66.1992 51.168 66.293 51.6367 66.4805C52.832 66.9727 53.4297 67.8516 53.4297 69.1172C53.4297 69.4219 53.3828 69.7266 53.2891 70.0312C52.8906 71.1094 51.918 71.7656 50.3711 72Z" fill="white"/>
<path d="M68.0547 42.4688C68.875 42.4922 69.6484 42.5742 70.375 42.7148C73.9844 43.4883 76.1992 46.3008 77.0195 51.1523C77.4648 50.8945 78.2031 50.4141 79.2344 49.7109C80.6406 48.75 81.707 48.2695 82.4336 48.2695C82.7852 48.2695 83.125 48.375 83.4531 48.5859C84.1797 49.0547 84.543 49.6875 84.543 50.4844C84.5195 51.2812 84.0039 52.1602 82.9961 53.1211C81.5664 54.4336 79.7148 55.5469 77.4414 56.4609C77.418 60.1172 76.8672 63.2109 75.7891 65.7422C74.0312 69.8672 71.1484 71.9297 67.1406 71.9297C65.7109 71.9297 64.2812 71.4727 62.8516 70.5586C59.5469 68.3789 57.8945 64.4531 57.8945 58.7812C57.8945 55.3594 58.4688 52.2422 59.6172 49.4297C61.4219 45 64.2344 42.6797 68.0547 42.4688ZM72.4492 57.375C71.5352 57.3516 70.668 57.2578 69.8477 57.0938C66.7539 56.4375 64.7617 54.7969 63.8711 52.1719C63.2617 54.1406 62.957 56.2852 62.957 58.6055C62.957 59.7305 63.0625 60.8203 63.2734 61.875C63.9297 65.0859 65.3594 66.6914 67.5625 66.6914C68.2891 66.6914 68.9453 66.4688 69.5312 66.0234C71.2422 64.7109 72.2148 61.8281 72.4492 57.375ZM71.9219 52.5938C71.9219 52.5938 72.0859 52.5938 72.4141 52.5938C72.0625 49.3828 71.2188 47.7656 69.8828 47.7422C69.7656 47.7422 69.6484 47.7539 69.5312 47.7773C69.0156 47.9648 68.7578 48.3516 68.7578 48.9375C68.7578 49.4531 68.8398 49.957 69.0039 50.4492C69.5195 51.8789 70.4922 52.5938 71.9219 52.5938Z" fill="white"/>
<path d="M81.7305 33.082C81.7539 33.082 81.8711 33.082 82.082 33.082C83.3945 33.1289 84.5781 33.1523 85.6328 33.1523L87.1797 22.2891C87.2734 21.5625 87.3906 20.9531 87.5312 20.4609C87.9531 18.9141 88.8086 18.1406 90.0977 18.1406C90.3555 18.1406 90.6133 18.1641 90.8711 18.2109C91.9492 18.4688 92.4883 19.4883 92.4883 21.2695C92.4883 21.832 92.0195 25.793 91.082 33.1523H94.7734C95.4062 33.1523 95.957 33.2812 96.4258 33.5391C97.2461 34.0312 97.6562 34.7578 97.6562 35.7188C97.6562 36.1406 97.5508 36.5391 97.3398 36.9141C96.8008 37.8047 95.9219 38.25 94.7031 38.25H90.3438C88.5156 52.3125 87.6016 60.1992 87.6016 61.9102C87.6016 62.9883 87.8242 63.9961 88.2695 64.9336C88.9258 66.3398 89.793 67.043 90.8711 67.043C91.1289 67.043 91.3984 67.0078 91.6797 66.9375C92.3125 66.7734 93.2148 66.2344 94.3867 65.3203C95.5352 64.4062 96.4961 63.9492 97.2695 63.9492C97.5977 63.9492 97.9141 64.0195 98.2188 64.1602C99.0625 64.582 99.4844 65.2266 99.4844 66.0938C99.4141 67.3125 98.5117 68.5781 96.7773 69.8906C94.668 71.4141 92.4297 72.1758 90.0625 72.1758C87.7422 72.1523 85.8438 71.1797 84.3672 69.2578C82.8672 67.2188 82.1172 64.6523 82.1172 61.5586C82.1172 60.8789 83.043 53.1094 84.8945 38.25H81.7305C81.5898 38.25 81.4492 38.25 81.3086 38.25C79.6914 38.1094 78.8828 37.2656 78.8828 35.7188C78.8828 35.2969 78.9531 34.9102 79.0938 34.5586C79.5156 33.5742 80.3945 33.082 81.7305 33.082Z" fill="white"/>
<path d="M96.4258 33.082C96.4492 33.082 96.5664 33.082 96.7773 33.082C98.0898 33.1289 99.2734 33.1523 100.328 33.1523L101.875 22.2891C101.969 21.5625 102.086 20.9531 102.227 20.4609C102.648 18.9141 103.504 18.1406 104.793 18.1406C105.051 18.1406 105.309 18.1641 105.566 18.2109C106.645 18.4688 107.184 19.4883 107.184 21.2695C107.184 21.832 106.715 25.793 105.777 33.1523H109.469C110.102 33.1523 110.652 33.2812 111.121 33.5391C111.941 34.0312 112.352 34.7578 112.352 35.7188C112.352 36.1406 112.246 36.5391 112.035 36.9141C111.496 37.8047 110.617 38.25 109.398 38.25H105.039C103.211 52.3125 102.297 60.1992 102.297 61.9102C102.297 62.9883 102.52 63.9961 102.965 64.9336C103.621 66.3398 104.488 67.043 105.566 67.043C105.824 67.043 106.094 67.0078 106.375 66.9375C107.008 66.7734 107.91 66.2344 109.082 65.3203C110.23 64.4062 111.191 63.9492 111.965 63.9492C112.293 63.9492 112.609 64.0195 112.914 64.1602C113.758 64.582 114.18 65.2266 114.18 66.0938C114.109 67.3125 113.207 68.5781 111.473 69.8906C109.363 71.4141 107.125 72.1758 104.758 72.1758C102.438 72.1523 100.539 71.1797 99.0625 69.2578C97.5625 67.2188 96.8125 64.6523 96.8125 61.5586C96.8125 60.8789 97.7383 53.1094 99.5898 38.25H96.4258C96.2852 38.25 96.1445 38.25 96.0039 38.25C94.3867 38.1094 93.5781 37.2656 93.5781 35.7188C93.5781 35.2969 93.6484 34.9102 93.7891 34.5586C94.2109 33.5742 95.0898 33.082 96.4258 33.082Z" fill="white"/>
<path d="M109.82 60.9609C109.82 60.1641 109.867 59.3203 109.961 58.4297C110.453 54.3984 111.719 50.8242 113.758 47.707C116.242 43.9102 119.23 42.0117 122.723 42.0117C124.223 42.0117 125.535 42.3047 126.66 42.8906C127.129 42.3281 127.773 42.0352 128.594 42.0117C129.062 42.0117 129.355 42.0469 129.473 42.1172C130.48 42.4453 130.984 43.4414 130.984 45.1055C130.984 45.7852 130.867 47.25 130.633 49.5C129.906 56.1562 129.543 60.293 129.543 61.9102C129.543 62.9883 129.766 63.9961 130.211 64.9336C130.867 66.3398 131.734 67.043 132.812 67.043C133.023 67.043 133.246 67.0195 133.48 66.9727C134.184 66.832 135.191 66.293 136.504 65.3555C137.793 64.418 138.824 63.9492 139.598 63.9492C139.902 63.9492 140.219 64.0547 140.547 64.2656C141.227 64.7344 141.566 65.3555 141.566 66.1289C141.496 67.3477 140.57 68.6133 138.789 69.9258C136.656 71.4258 134.395 72.1758 132.004 72.1758C129.051 72.1523 126.871 70.6641 125.465 67.7109C125.137 68.1094 124.762 68.5078 124.34 68.9062C122.02 71.0859 119.664 72.1758 117.273 72.1758C115.773 72.1758 114.473 71.7891 113.371 71.0156C111.004 69.2812 109.82 65.9297 109.82 60.9609ZM125.289 49.3945C125.289 49.3945 125.371 48.5977 125.535 47.0039C125.02 46.7461 124.48 46.6172 123.918 46.6172C123.496 46.6172 123.062 46.6758 122.617 46.793C120.438 47.4023 118.598 49.418 117.098 52.8398C115.762 55.9102 115.094 58.9922 115.094 62.0859C115.094 62.2031 115.094 62.3203 115.094 62.4375C115.164 65.2969 115.891 66.7266 117.273 66.7266C118 66.7031 118.891 66.3047 119.945 65.5312C121.023 64.7578 121.809 64.0312 122.301 63.3516C122.605 62.9062 123.016 61.6055 123.531 59.4492C124.469 55.4414 125.055 52.0898 125.289 49.3945Z" fill="white"/>
</svg>
